<svg xmlns="http://www.w3.org/2000/svg" xmlns:xlink="http://www.w3.org/1999/xlink" viewBox="0 0 316.59 114.59"><defs><style>.cls-1{isolation:isolate;}.cls-2,.cls-3{mix-blend-mode:multiply;}.cls-2{fill:url(#linear-gradient);}.cls-3{fill:url(#linear-gradient-2);}.cls-4{fill:url(#linear-gradient-3);}.cls-5{fill:url(#linear-gradient-4);}.cls-6{fill:#00429a;}.cls-7{fill:#e83828;}.cls-8{fill:#009a53;}.cls-11,.cls-9{fill:#231815;}.cls-10{fill:none;}.cls-11{fill-rule:evenodd;}</style><linearGradient id="linear-gradient" x1="229.95" y1="8.29" x2="226.3" y2="46.89" gradientUnits="userSpaceOnUse"><stop offset="0" stop-color="#000400"/><stop offset="0.11" stop-color="#002512"/><stop offset="0.31" stop-color="#00572e"/><stop offset="0.47" stop-color="#007b42"/><stop offset="0.61" stop-color="#00924e"/><stop offset="0.7" stop-color="#009a53"/></linearGradient><linearGradient id="linear-gradient-2" x1="219.65" y1="6.89" x2="216.27" y2="45.54" gradientUnits="userSpaceOnUse"><stop offset="0.55" stop-color="#009a53"/><stop offset="0.61" stop-color="#00924e"/><stop offset="0.7" stop-color="#007b42"/><stop offset="0.8" stop-color="#00572e"/><stop offset="0.93" stop-color="#002512"/><stop offset="1" stop-color="#000400"/></linearGradient><linearGradient id="linear-gradient-3" x1="182.21" y1="44.25" x2="207.32" y2="5" gradientUnits="userSpaceOnUse"><stop offset="0.22" stop-color="#e83828"/><stop offset="0.47" stop-color="#ae2618"/><stop offset="0.51" stop-color="#003887"/><stop offset="0.54" stop-color="#00347d"/><stop offset="0.73" stop-color="#00183b"/><stop offset="0.87" stop-color="#000713"/><stop offset="0.95" stop-color="#000003"/></linearGradient><linearGradient id="linear-gradient-4" x1="188.16" y1="1.18" x2="201.91" y2="43.99" gradientUnits="userSpaceOnUse"><stop offset="0" stop-color="#006da7"/><stop offset="0.19" stop-color="#00429a"/><stop offset="0.45" stop-color="#00429a"/><stop offset="0.52" stop-color="#a71e41"/><stop offset="0.55" stop-color="#c32936"/><stop offset="0.58" stop-color="#de342c"/><stop offset="0.6" stop-color="#e83828"/><stop offset="0.77" stop-color="#e83828"/><stop offset="0.78" stop-color="#e83828"/><stop offset="0.8" stop-color="#e13627"/><stop offset="0.83" stop-color="#cf3123"/><stop offset="0.87" stop-color="#b1281d"/><stop offset="0.92" stop-color="#861d14"/><stop offset="0.96" stop-color="#510d0a"/><stop offset="1" stop-color="#210000"/></linearGradient></defs><title>アセット 1</title><g class="cls-1"><g id="レイヤー_2" data-name="レイヤー 2"><g id="レイヤー_1-2" data-name="レイヤー 1"><path class="cls-2" d="M236.49,16.29A13.31,13.31,0,0,0,230.73,9a12.28,12.28,0,0,0-1.44-.73,11.34,11.34,0,0,0-2.49-.14,12.62,12.62,0,0,0-1.55.23c2.61.67,4.94,2.89,6.08,8,.61,2.74.65,5.84.28,10.36a41,41,0,0,1-2,10.61c-1,2.92-2.27,5.91-5.83,7.4a10.47,10.47,0,0,1-1.61.5,19,19,0,0,1-2.91.45,15.87,15.87,0,0,1-2.21-.08,15.93,15.93,0,0,0,4.32.8,14.29,14.29,0,0,0,7.6-1.55,13.65,13.65,0,0,0,6.34-7.23,38.53,38.53,0,0,0,2.22-10.78A25.73,25.73,0,0,0,236.49,16.29Z"/><path class="cls-3" d="M219.27,45.69a19,19,0,0,0,2.91-.45,8.11,8.11,0,0,1-2.88-1.12c-2.63-1.5-4-3.38-5-7-.68-2.33-.82-5.71-.42-10.31s1.16-8,2.26-10.3c1.74-3.71,3.59-5.9,6.7-7.38a10.84,10.84,0,0,1,2.47-.83,12.62,12.62,0,0,1,1.55-.23,11.34,11.34,0,0,1,2.49.14,12.65,12.65,0,0,0-4.88-.91,14.5,14.5,0,0,0-2.58.14,19.66,19.66,0,0,0-3.06.74c-4.23,1.47-6.28,4.28-8.09,7.85-1.43,2.83-2.16,6.29-2.54,10.65A26.12,26.12,0,0,0,209,37.31,13.36,13.36,0,0,0,217,45.6h0A15.87,15.87,0,0,0,219.27,45.69Z"/><path class="cls-4" d="M205.35,4.56A11,11,0,0,0,199.8.68l-.24,0a7.39,7.39,0,0,0-1.06-.08,14.19,14.19,0,0,0-1.56.09c-.63.07-1.33.17-1.86.26l-.24,0a8.9,8.9,0,0,1,7,5.52c1.7,4.54-1.42,9.36-8.14,12.74l-.93.47c-4.44,2.22-10,5-12.86,8.83A11.55,11.55,0,0,0,177.43,36c.14,4.7,3.06,8.21,7.84,9.6a19.54,19.54,0,0,0,5.82.85,20.6,20.6,0,0,0,5.22-.68l-1.64,0c-.73,0-1.45-.07-2.15-.15A11.47,11.47,0,0,1,186,42.83a8.76,8.76,0,0,1-3.27-7.52c.17-1.87,1.75-5.46,7.76-8.46,2.92-1.46,9.91-5.09,13.51-8.89a11.63,11.63,0,0,0,3.08-6.54A9.17,9.17,0,0,0,205.35,4.56Z"/><path class="cls-5" d="M204.9,28.58c-2.25-3.87-8.31-7.16-11.37-8.88s-6.34-4.17-7.38-7.64a7.55,7.55,0,0,1,.92-5.75,11.32,11.32,0,0,1,5.38-4.64,12.54,12.54,0,0,1,2.64-.76c.53-.09,1.22-.19,1.86-.26a14.19,14.19,0,0,1,1.56-.09,7.39,7.39,0,0,1,1.06.08l.24,0a17.85,17.85,0,0,0-5-.68,19.31,19.31,0,0,0-5.09.69,14,14,0,0,0-6.08,3.82,10.46,10.46,0,0,0-1,13.41c3,3.82,9.12,7.36,11.82,8.82,4.19,2.27,6.76,5.81,6.39,8.46a11.43,11.43,0,0,1-4.27,7.13,12.5,12.5,0,0,1-5.49,2.75l-.61.1h0a13,13,0,0,0,2,.38c.7.07,1.42.12,2.15.15l1.64,0c5.27-1.27,8.77-4.83,9.76-9.65A10.39,10.39,0,0,0,204.9,28.58Z"/><rect class="cls-6" x="46.9" y="67.98" width="11.17" height="29.35"/><path class="cls-7" d="M69.39,82.65a5.56,5.56,0,1,1-5.56-5.56A5.56,5.56,0,0,1,69.39,82.65Z"/><polygon class="cls-8" points="82.13 97.33 65.88 97.33 74 66.83 82.13 97.33"/><path class="cls-9" d="M80.93,104c-.18-.92-1-1.46-2.4-1.46s-2.22.54-2.4,1.46a5.9,5.9,0,0,0-.08.88v7.41a5.94,5.94,0,0,0,.08.88c.18.92,1,1.46,2.4,1.46s2.22-.54,2.4-1.46a5,5,0,0,0,.08-.88v-7.41A5,5,0,0,0,80.93,104ZM79.65,113c0,.58-.37.86-1.13.86s-1.12-.28-1.12-.86v-9q0-.86,1.12-.86c.76,0,1.13.29,1.13.86Z"/><polygon class="cls-9" points="51.19 102.65 51.19 107.99 48.39 107.99 48.39 102.65 47.03 102.65 47.03 114.45 48.39 114.45 48.39 108.75 51.19 108.75 51.19 114.45 52.54 114.45 52.54 102.65 51.19 102.65"/><polygon class="cls-9" points="69.41 103.47 69.41 102.65 65.31 102.65 65.31 114.45 69.41 114.45 69.41 113.64 66.66 113.64 66.66 108.72 69.18 108.72 69.18 107.94 66.66 107.94 66.66 103.47 69.41 103.47"/><rect class="cls-9" x="70.41" y="102.65" width="1.35" height="11.8"/><polygon class="cls-9" points="72.94 107.41 75.21 102.65 74.35 102.65 71.76 108.09 74.49 114.45 75.96 114.45 72.94 107.41"/><path class="cls-9" d="M57,102.65H55.32L53,114.45h.88l.65-3.28H57.3l.64,3.28h1.39Zm-2.32,7.74,1.26-6.23,1.25,6.23Z"/><path class="cls-9" d="M60.22,107.09a3.51,3.51,0,0,1-.55-1.85c0-.33,0-.79,0-1.06.09-1.1,1.09-1.68,2.32-1.68,1.46,0,2.32.71,2.32,1.78v1.57H63v-1.79a.76.76,0,0,0-.86-.81c-.71,0-1,.25-1,.77,0,.3,0,.82,0,1.11a2.18,2.18,0,0,0,.49,1.42c.41.61,1.61,2,2.22,2.79a3,3,0,0,1,.71,1.87,13.83,13.83,0,0,1,0,1.68c-.11,1.14-1.25,1.71-2.46,1.71-1.43,0-2.38-.7-2.38-1.57V111H61v2.08c0,.64.52.8,1.08.8s1-.24,1-.74,0-1.21,0-1.58a2,2,0,0,0-.48-1.4C62.2,109.56,60.65,107.71,60.22,107.09Z"/><rect class="cls-10" x="46.9" y="67.98" width="34.11" height="46.47"/><path class="cls-9" d="M260,73.43H242.72v2.89h17.23c-.29,6.15-1.84,10.58-4.66,13.41-2.52,2.55-6.19,3.92-11.5,4.36v3.1h.13c6.14-.49,10.45-2.15,13.58-5.26,3.64-3.65,5.47-9.26,5.62-17l0-1.45v0Z"/><path class="cls-9" d="M269.68,73.42a3,3,0,1,1-3-3A2.94,2.94,0,0,1,269.68,73.42Zm-3-1.36a1.36,1.36,0,1,0,1.36,1.36A1.37,1.37,0,0,0,266.72,72.06Z"/><path class="cls-9" d="M118.43,85.22h-18V83.9H116V81.49H100.46V80.05H116V77.62H100.46V76.36h15.79V73.78H97.38V85.22h-4.1v2.57h3.63v6.72c-.85,0-1.68.07-2.41.1v2.73c3.85-.06,9-.62,12.46-2.07V92.52a25.59,25.59,0,0,1-7,1.72V87.79h4.74c1.93,5.35,7.61,8.93,13.7,9.75V94.79a15.64,15.64,0,0,1-6.18-2.28,21.9,21.9,0,0,0,4.28-3.8h-3.75a13.92,13.92,0,0,1-2.53,2.22,9,9,0,0,1-2.14-3.14h10.32Z"/><path class="cls-9" d="M134.65,76.8h-3.87a21.25,21.25,0,0,1-10.9,8.46v3.17a24.41,24.41,0,0,0,3.81-1.64v10.4h18.05V86.79a24.53,24.53,0,0,0,3.82,1.64V85.26A21.35,21.35,0,0,1,134.65,76.8Zm4.09,17.74h-12V88.67h12ZM125.05,86a23.52,23.52,0,0,0,7.67-7.22A23.51,23.51,0,0,0,140.39,86Z"/><path class="cls-9" d="M130.24,73.45h-3.52a12.31,12.31,0,0,1-6,3.64v3.06C124.94,79,129,75.51,130.24,73.45Z"/><path class="cls-9" d="M144.77,80.15V77.09a12.22,12.22,0,0,1-6-3.64h-3.53C136.42,75.51,140.49,79,144.77,80.15Z"/><polygon class="cls-9" points="159.19 94.3 159.19 76.68 168.51 76.68 168.51 73.78 146.68 73.78 146.68 76.68 156.02 76.68 156.02 94.3 145.94 94.3 145.94 97.19 169.26 97.19 169.26 94.3 159.19 94.3"/><path class="cls-9" d="M220.31,80.84v4.23c0,4.86-2.44,7.09-5.67,8.19V73.48h-3.12v23.7c5-.61,11.87-2.9,11.89-12.11V80.84Z"/><path class="cls-9" d="M204.57,73.51V85.57c0,5-2.57,7.42-6,8.5v3.12c4.46-1.12,9.09-4,9.13-11.61V73.51Z"/><rect class="cls-9" x="226.15" y="83.66" width="17.62" height="2.94"/><rect class="cls-9" x="195.78" y="70.46" width="2.5" height="6.52"/><rect class="cls-9" x="199.13" y="70.46" width="2.49" height="6.52"/><path class="cls-9" d="M172.65,94.14v3.06C181.73,97,189.12,92,192.49,85.4A19.42,19.42,0,0,0,194.11,81a31.07,31.07,0,0,0,.7-4.67c.08-.92.11-1.85.12-2.86H180.47a5.61,5.61,0,0,1-1.34,2.86,8.77,8.77,0,0,1-5.23,2.75v3a11.28,11.28,0,0,0,8.91-5.79h8.78a24,24,0,0,1-.58,3.79,19.08,19.08,0,0,1-1.3,3.72l0,.05C186.62,89.95,180.12,93.86,172.65,94.14Z"/><path class="cls-9" d="M261.94,45.92a.86.86,0,0,1-.81-.55,3.37,3.37,0,0,0-1.43-1.3l-.1-.06c-.16-.09-.3-.16-.3-.31a.27.27,0,0,1,.29-.27l.8,0,.84,0c.89,0,1.14-.05,1.21-.27a78.1,78.1,0,0,0,.15-8.07c0-2.58-.07-5.38-.14-8,0-.42-.05-.59-.54-.59H249.36c-.53,0-.56.07-.56.58v.11c-.12,9.12-.15,11-1.12,14.38-.61,2.06-2.19,4.07-2.76,4.07a.28.28,0,0,1-.29-.29c0-.07,0-.11.14-.31l0-.09c1.15-2,2-4.39,2-14.32a24.87,24.87,0,0,0-.4-4.71c0-.07-.05-.24-.09-.39a1.27,1.27,0,0,1-.06-.28.46.46,0,0,1,.46-.46c.22,0,.32,0,1,.35l.18.07a2.12,2.12,0,0,0,1.06.25h12.84c.39,0,.49,0,.69-.3.06-.09.29-.42.57-.42s2.12,1.14,2.12,1.65a.63.63,0,0,1-.24.44l0,0c-.5.42-.5.42-.5,2.77,0,.91.05,3.52.11,6.29s.11,5.78.11,6.84a3,3,0,0,1-.47,1.88A3.18,3.18,0,0,1,261.94,45.92Zm-10.29-1.38c-.2,0-.67-.07-.67-.75a.75.75,0,0,1,0-.13s0-.08,0-.11v-.17c.09-1.08.15-1.87.15-3s-.07-2.27-.12-2.72l0-.07a6.42,6.42,0,0,1-.15-.85c0-.14.05-.46.51-.46a2.9,2.9,0,0,1,1,.36,1.46,1.46,0,0,0,.88.19h3.88a.79.79,0,0,0,.46-.1,1,1,0,0,0,.13-.13c.26-.28.39-.41.54-.41s1.72.94,1.72,1.39a.88.88,0,0,1-.25.5c-.26.2-.26.2-.28.34s0,1.67,0,3.92a1.35,1.35,0,0,1-1.37,1.43c-.65,0-.72-.45-.76-.75s-.19-.36-.55-.36h-3.16c-.51,0-.51.11-.54.5A1.5,1.5,0,0,1,251.64,44.54Zm1.93-6.68c-.61,0-.61,0-.61,2,0,1.77,0,1.77.59,1.77H257c.6,0,.61,0,.61-2.25,0-1.54,0-1.54-.59-1.54Zm-3.07-2.78a.45.45,0,0,1-.39-.26l-.45-.52c-.12-.15-.14-.18-.14-.27a.28.28,0,0,1,.29-.27c.13,0,.75.08.89.1l.72,0c.85,0,1.91.07,2.43.07s.51,0,.51-1.92c0-.59-.21-.59-.49-.59-.66,0-1.35,0-1.71,0h-.26l-.3,0-.36,0a.45.45,0,0,1-.36-.23l-.47-.55c-.12-.14-.15-.18-.15-.27a.28.28,0,0,1,.3-.27c.24,0,.91,0,1.62.08s1.47.08,1.73.08.46-.13.46-.42-.07-1.27-.09-1.48-.05-.24-.1-.44a5.94,5.94,0,0,1-.17-.89.35.35,0,0,1,.37-.36l1,.22,1,.22a.45.45,0,0,1,.42.46c0,.09-.05.18-.19.4l-.09.15a6.94,6.94,0,0,0-.17,1.67c0,.46,0,.49,1,.49.71,0,.76,0,.95-.35l0-.07c.37-.64.45-.79.77-.79S261,30.34,261,30.9s-.58.53-1.46.53h-2.66c-.54,0-.56.15-.56.68,0,1.8,0,1.8.61,1.8h1c1,0,1,0,1.18-.37l0-.07c.39-.7.48-.84.8-.84s1.79,1.25,1.79,1.77-.6.56-1.49.56H254c-.59,0-2.15,0-3,.07l-.25,0Z"/><path class="cls-9" d="M281.66,46.16a1,1,0,0,1-.94-.94c0-.24.06-1,.12-1.68,0-.3,0-.55.05-.67,0-.76.07-2.84.07-3.41s-.18-.52-.51-.52h-5.14c-.59,0-2.16,0-3,.07l-.24,0-.27,0a.44.44,0,0,1-.37-.22l-.45-.54c-.12-.12-.16-.16-.16-.29s0-.25.29-.25.9,0,1.6.08,1.5.09,1.78.09c.46,0,.46,0,.46-1.39,0-.5-.06-2.55-.1-3.64,0-.42,0-.71,0-.73,0-.39,0-.63.29-.63a3.72,3.72,0,0,1,1.23.34,2.65,2.65,0,0,0,1,.18h3c.52,0,.54-.16.54-.54C281,28,281,28,280.5,28H278c-.63,0-.64,0-1.27.75-1.22,1.47-4.2,4.22-5.15,4.22a.27.27,0,0,1-.29-.27c0-.1,0-.18.82-1a19.57,19.57,0,0,0,4.37-7.05s.15-.76.45-.76h.07c.25.1,2.48,1,2.48,1.52,0,.19-.21.37-.64.69l-.2.16a2.35,2.35,0,0,0-.5.68h7.4c1.06,0,1.11,0,1.22-.16l.17-.26c.45-.69.68-1,.92-1a8.42,8.42,0,0,1,1.34.77c1.26.83,1.26,1,1.26,1.14,0,.53-.59.53-1.48.53h-5.33c-.34,0-.49.06-.52.39v3.12c0,.56.13.59.66.59h.9a5.08,5.08,0,0,0,1.09-.05s.23-.24.38-.39c.48-.52.79-.84,1-.84s2.41,1.29,2.41,1.79-.44.51-1.49.51h-4.33c-.57,0-.66,0-.66.68,0,.88,0,2.75,0,3.64,0,.31,0,.54.54.54h3.87c.79,0,.8,0,1.15-.51.63-.9.75-1.06,1.09-1.06s2.65,1.61,2.65,2.1S292,39,291,39h-7.3c-.46,0-.52.11-.52.56v2.09c0,.21,0,.82.07,1.41s.07,1.31.07,1.56c0,.41,0,.74-.31,1A2.3,2.3,0,0,1,281.66,46.16Zm-4-13.08c-.52,0-.56,0-.56,1.94,0,2.92,0,2.92.61,2.92h2.79c.6,0,.61,0,.61-2.63,0-2.23,0-2.23-.59-2.23Z"/><path class="cls-11" d="M29.78,34.23a.71.71,0,0,0-.26,0,7.92,7.92,0,0,0-1.36.36l-.77.24a1.93,1.93,0,0,1-.59.08,1.09,1.09,0,0,1-.45-.11,1.85,1.85,0,0,1-.47-.33A4.84,4.84,0,0,1,24.82,33a.84.84,0,0,1,0-.12.41.41,0,0,1,.45-.54l.19,0a7.19,7.19,0,0,0,1.3.18,3.63,3.63,0,0,0,.77-.07,14.86,14.86,0,0,0,2-.5l.26-.09.07,0c0-.11,0-.22.05-.33q.12-1.09.15-2.19a3.33,3.33,0,0,0,0-.59,1.92,1.92,0,0,0-.32-.83,3.47,3.47,0,0,0-.4-.49l-.2-.21L29,27.1a.37.37,0,0,1,.08-.58,1,1,0,0,1,.56-.16,3.25,3.25,0,0,1,1.5.33,3,3,0,0,1,1,.74,2.16,2.16,0,0,1,.32.5.79.79,0,0,1,0,.68c-.08.2-.16.4-.25.6a2.69,2.69,0,0,0-.31,1c0,.27-.09.55-.13.82,0,.09,0,.18,0,.27a.31.31,0,0,0,.23-.05.81.81,0,0,0,.39-.29l0-.12,0-.12a.34.34,0,0,1,.25-.47h.18a2.31,2.31,0,0,1,1.21.47,1.17,1.17,0,0,1,.27.29.93.93,0,0,1,0,1.09,1.88,1.88,0,0,1-.35.38,4.1,4.1,0,0,1-.68.47,11.21,11.21,0,0,1-1.27.61l-.27.11a.21.21,0,0,0-.15.18c0,.16,0,.32-.06.48,0,.57,0,1.15-.05,1.73,0,.39,0,.78,0,1.17a.49.49,0,0,0,0,.21c.07,0,.13,0,.19,0l1.25-.5c.81-.33,1.63-.64,2.47-.9a14,14,0,0,1,1.6-.4,6.78,6.78,0,0,1,1.51-.12,4.19,4.19,0,0,1,1.72.47,4,4,0,0,1,2.19,4,4.38,4.38,0,0,1-.7,2,5,5,0,0,1-1.28,1.33,7,7,0,0,1-2.7,1.18,5.77,5.77,0,0,1-1,.12,3.57,3.57,0,0,1-1.78-.38A2.09,2.09,0,0,1,33.73,43a2.21,2.21,0,0,1,0-1.4,2.68,2.68,0,0,1,.87-1.24,1.27,1.27,0,0,1,.34-.21.37.37,0,0,1,.35,0,.36.36,0,0,1,.15.46,1.25,1.25,0,0,1-.12.2.91.91,0,0,0-.15.77.78.78,0,0,0,.33.5,1.45,1.45,0,0,0,.41.18,2.75,2.75,0,0,0,1,.06,4.3,4.3,0,0,0,1.79-.57,3.28,3.28,0,0,0,.89-.75A2.47,2.47,0,0,0,40.11,39a2.61,2.61,0,0,0-.39-1.13,2.29,2.29,0,0,0-1.32-1,2,2,0,0,0-.84,0,8,8,0,0,0-1.65.43,20.55,20.55,0,0,0-2.13.92c-.61.3-1.21.61-1.8.95l-.36.21-.16.12a.28.28,0,0,0-.11.24c0,.2,0,.4,0,.59,0,.44.07.89,0,1.33a5.62,5.62,0,0,1-.28,1.63,4.28,4.28,0,0,1-.23.51,1.66,1.66,0,0,1-.2.3,1.07,1.07,0,0,1-1.25.35,1.27,1.27,0,0,1-.6-.44,2.65,2.65,0,0,1-.29-.46c-.14-.28-.29-.55-.44-.83a5.46,5.46,0,0,0-.29-.47c-.16-.23-.2-.27-.55-.21a1.54,1.54,0,0,0-.56.23l-.43.26-.24.11a.47.47,0,0,1-.32,0l-.15-.06a3.07,3.07,0,0,1-1.21-.95,1.33,1.33,0,0,1,.1-1.78.75.75,0,0,1,.6-.24l.52.06.39.05a2.52,2.52,0,0,0,.89-.09,5.58,5.58,0,0,0,.78-.29c.56-.25,1.11-.52,1.65-.8l.37-.22a.52.52,0,0,0,.24-.46c0-.28,0-.55,0-.83,0-.52,0-1,0-1.55,0-.32,0-.64,0-1A.49.49,0,0,0,29.78,34.23Zm-1.23,7,0,.09a1.89,1.89,0,0,0,.62.75l.11.06a.12.12,0,0,0,.15,0,.82.82,0,0,0,.11-.14,2.24,2.24,0,0,0,.14-.33,3.42,3.42,0,0,0,.14-.9,1.63,1.63,0,0,0,0-.34A3.82,3.82,0,0,0,28.56,41.27Z"/><path class="cls-11" d="M136.08,28.82l.18-.06.65-.22a2,2,0,0,1,.82-.09,1.16,1.16,0,0,1,.38.1.66.66,0,0,1,.39.75,1.14,1.14,0,0,1-.19.46,1.75,1.75,0,0,1-.35.36,3.46,3.46,0,0,1-.69.42A9.54,9.54,0,0,1,136,31l-.17.05a4.57,4.57,0,0,0-.12,1q0,.53,0,1.06a7.41,7.41,0,0,0,0,1,.31.31,0,0,0,.22,0,4.13,4.13,0,0,0,1.14-.43,2.47,2.47,0,0,0,.35-.24,1,1,0,0,0,.18-.21.27.27,0,0,0,0-.25,2.23,2.23,0,0,1-.06-.23l0-.1a.3.3,0,0,1,.28-.35.83.83,0,0,1,.22,0l.43.08.43,0a6.8,6.8,0,0,1,.91.11,1.51,1.51,0,0,1,.41.14.71.71,0,0,1,.33,1,1.35,1.35,0,0,1-.27.38,3.33,3.33,0,0,1-.54.45,8.83,8.83,0,0,1-1.17.67,17.46,17.46,0,0,1-2,.83l-.52.19a.5.5,0,0,0-.23.12c0,.05,0,.11,0,.17,0,.38.05.75.08,1.13s.05.66.09,1c.06.59.12,1.19.18,1.77a1.8,1.8,0,0,0,0,.25.28.28,0,0,0,.16.19l.2.09a9.93,9.93,0,0,1,2.05,1.11,5.59,5.59,0,0,1,1.16,1.08,2.88,2.88,0,0,1,.37.6,1.83,1.83,0,0,1,.18.66,1.37,1.37,0,0,1-.39,1.12,1,1,0,0,1-.51.28.81.81,0,0,1-.73-.17,3.14,3.14,0,0,1-.35-.34l-.69-.81a5.67,5.67,0,0,0-1.26-1.09l-.22-.12h0a.29.29,0,0,0-.1.15,3.83,3.83,0,0,1-.84,1.22,5.37,5.37,0,0,1-2.46,1.4,5,5,0,0,1-1.7.14,3.43,3.43,0,0,1-1.88-.7A2.9,2.9,0,0,1,128,43.55a2.25,2.25,0,0,1,.63-1.93,3.34,3.34,0,0,1,1.06-.74,6,6,0,0,1,1.43-.43,9.13,9.13,0,0,1,1.47-.13c.31,0,.61,0,.92,0l.58,0a.2.2,0,0,0,.05-.18c0-.24,0-.49,0-.74,0-.86,0-1.73,0-2.6,0-.07,0-.13,0-.21H134l-.88,0a14.65,14.65,0,0,1-1.87.06,5.65,5.65,0,0,1-1.88-.39l-.37-.17a3.26,3.26,0,0,1-1.43-1.48,1.21,1.21,0,0,1-.1-.29.45.45,0,0,1,0-.2.26.26,0,0,1,.26-.21.64.64,0,0,1,.23,0c.19.06.37.13.56.21a6,6,0,0,0,1.28.38,11,11,0,0,0,2.33.18,9.71,9.71,0,0,0,1.17-.07,2.76,2.76,0,0,0,.51-.11.54.54,0,0,0,.23-.13c0-.28.23-3.07.21-3.25l-.14,0a4.81,4.81,0,0,1-1.22-.21,4.58,4.58,0,0,1-1.9-1.13,2.52,2.52,0,0,1-.46-.62,1.61,1.61,0,0,1-.18-.56.53.53,0,0,1,0-.27.53.53,0,0,1,.09-.16.28.28,0,0,1,.33-.07l.14.07.59.35a4.4,4.4,0,0,0,1.47.57,4.57,4.57,0,0,0,1.11.06h.05c.29-.06.29-.1.32-.34s.05-.61.07-.91,0-.64,0-1a2.24,2.24,0,0,0-.09-.71,6.55,6.55,0,0,0-.43-1.11.94.94,0,0,1-.08-.16.33.33,0,0,1,.14-.41.74.74,0,0,1,.29-.1,2.36,2.36,0,0,1,1,.07,3.94,3.94,0,0,1,1,.43,1.92,1.92,0,0,1,.44.35,1.44,1.44,0,0,1,.17.23.53.53,0,0,1,0,.47,4.28,4.28,0,0,1-.17.4c-.09.19-.19.38-.29.56a3,3,0,0,0-.34.85c-.06.25-.11.5-.16.76A1.12,1.12,0,0,0,136.08,28.82ZM134,42.3a.36.36,0,0,0-.18-.11l-.34-.1a8.37,8.37,0,0,0-1.48-.17,4.84,4.84,0,0,0-1.06.08,3.35,3.35,0,0,0-.93.27,1.51,1.51,0,0,0-.43.29.76.76,0,0,0,.07,1.17,1.78,1.78,0,0,0,.42.23,2.82,2.82,0,0,0,1.38.18,4.11,4.11,0,0,0,1.67-.59,2.25,2.25,0,0,0,.45-.36,1.7,1.7,0,0,0,.41-.69A.33.33,0,0,0,134,42.3Z"/><path class="cls-11" d="M110.23,30.64a1,1,0,0,0-.2-.22c-.24-.21-.5-.39-.76-.58s-.42-.31-.63-.48a4.51,4.51,0,0,1-.69-.71,3,3,0,0,1-.33-.52,1.4,1.4,0,0,1,.91-2,1.7,1.7,0,0,1,1.11.06,3.72,3.72,0,0,1,.46.21l1,.55a3.69,3.69,0,0,0,1.42.48,9.64,9.64,0,0,0,1.4,0,11.62,11.62,0,0,1,1.35,0l.18,0a1.08,1.08,0,0,1,.85,1.1,1,1,0,0,1-.12.47,2.32,2.32,0,0,1-.31.46,5.43,5.43,0,0,1-1.19,1l-.46.29L114,31c-.08.06-.09.1,0,.18a1.28,1.28,0,0,0,.18.2l.78.7a21.31,21.31,0,0,1,2.11,2.2,11.29,11.29,0,0,1,1,1.45,6.25,6.25,0,0,1,.64,1.45,4,4,0,0,1,.16,1,2.28,2.28,0,0,1-.1.78,1.61,1.61,0,0,1-.93,1,2.11,2.11,0,0,1-1.15.16,1.57,1.57,0,0,1-.45-.13l-.64-.32-1.28-.7a10.33,10.33,0,0,0-2.15-.85,6.56,6.56,0,0,0-1.51-.23,3.5,3.5,0,0,0-1.86.42,3.18,3.18,0,0,0-1.5,1.79,1.66,1.66,0,0,0,0,.89,1.57,1.57,0,0,0,.48.83,2.6,2.6,0,0,0,1,.53,5.75,5.75,0,0,0,1.16.22,7.71,7.71,0,0,0,1.06,0l.59,0,1.67-.16a1.92,1.92,0,0,1,.66,0,1.27,1.27,0,0,1,.85.68,1.15,1.15,0,0,1-.2,1.32,1.74,1.74,0,0,1-.56.39,3.81,3.81,0,0,1-1,.28,9.29,9.29,0,0,1-1.65.08,11.81,11.81,0,0,1-1.92-.19,6.92,6.92,0,0,1-1.93-.66,4.31,4.31,0,0,1-1.66-1.51,3.5,3.5,0,0,1-.48-1.16,3.34,3.34,0,0,1,.13-1.81,3.78,3.78,0,0,1,1.18-1.68,5.46,5.46,0,0,1,1.8-1,7.3,7.3,0,0,1,1.85-.38,7.76,7.76,0,0,1,1.38,0,8,8,0,0,1,1.28.23l1.8.5a6.5,6.5,0,0,0,.75.18,1,1,0,0,0,.51-.05.48.48,0,0,0,.33-.43,1.21,1.21,0,0,0,0-.38,3.36,3.36,0,0,0-.29-.78,9.15,9.15,0,0,0-.77-1.28,15.07,15.07,0,0,0-1.74-2.06,5.88,5.88,0,0,0-.68-.59l-.24-.15a.19.19,0,0,0-.17,0l-.74.25-2,.67a5.73,5.73,0,0,1-1.23.25,6.35,6.35,0,0,1-1.19,0,4.17,4.17,0,0,1-3.06-1.58,2.57,2.57,0,0,1-.37-.6,2.39,2.39,0,0,1-.1-.31.61.61,0,0,1,0-.21.41.41,0,0,1,.54-.38,1.33,1.33,0,0,1,.27.11l.69.34a7,7,0,0,0,1.69.6,4.15,4.15,0,0,0,1.59,0,6.23,6.23,0,0,0,1.2-.3l.39-.18Zm-.12-3.2c-.25,0-.36.12-.31.32a1,1,0,0,0,.11.26,3.31,3.31,0,0,0,.3.4,4.31,4.31,0,0,0,.63.57,8.39,8.39,0,0,0,.88.61l.29.14a.28.28,0,0,0,.22,0,1.19,1.19,0,0,0,.4-.21.75.75,0,0,0,.16-.17.33.33,0,0,0-.08-.45l-.22-.15-.62-.38-1.23-.72-.37-.19Z"/><path class="cls-11" d="M56.92,34h-.1a9.92,9.92,0,0,0-1.07.33l-1.55.5c-.16.05-.32.09-.48.13a1.06,1.06,0,0,1-.57,0,1.78,1.78,0,0,1-.47-.21,3.32,3.32,0,0,1-.55-.43,4.18,4.18,0,0,1-.8-1.06,3.06,3.06,0,0,1-.16-.4.76.76,0,0,1,0-.23.42.42,0,0,1,.39-.42.8.8,0,0,1,.23,0l1.07.25a2.24,2.24,0,0,0,.89,0c1-.14,2-.34,3-.54l.6-.12a.19.19,0,0,0,.17-.16c0-.13.08-.26.11-.4a8.88,8.88,0,0,0,.13-1.16c0-.43,0-.86,0-1.3a3.29,3.29,0,0,0-.1-.8,2.47,2.47,0,0,0-.5-1l-.29-.35a1.42,1.42,0,0,1-.12-.18.37.37,0,0,1,.12-.5.83.83,0,0,1,.23-.09,1.85,1.85,0,0,1,.32,0,3.91,3.91,0,0,1,1.49.31,2.71,2.71,0,0,1,.89.6,1.63,1.63,0,0,1,.37.55.89.89,0,0,1,0,.6c-.14.46-.27.93-.4,1.4s-.34,1.2-.46,1.82a1.38,1.38,0,0,0,0,.29h.13l.67-.06a6.57,6.57,0,0,1,1-.05,4.4,4.4,0,0,1,1.29.25,2.85,2.85,0,0,1,1.87,2.07A4.76,4.76,0,0,1,64.46,35c0,.46,0,.91-.1,1.37a20.4,20.4,0,0,1-1,4.66,9.94,9.94,0,0,1-.61,1.22,5.24,5.24,0,0,1-1.8,1.93,3.12,3.12,0,0,1-1.12.48,1.77,1.77,0,0,1-.68,0,1.32,1.32,0,0,1-.72-.41,1.9,1.9,0,0,1-.33-.49,4.83,4.83,0,0,1-.21-.5c-.12-.35-.25-.69-.39-1,0-.09,0-.18,0-.27a.34.34,0,0,1,.34-.44l.18,0,.26.07a4.93,4.93,0,0,0,.95.2l.41,0a1.37,1.37,0,0,0,1.19-.47,3.06,3.06,0,0,0,.47-.68,7.93,7.93,0,0,0,.58-1.49,28.13,28.13,0,0,0,.67-2.89,10,10,0,0,0,.18-1.76,2.83,2.83,0,0,0-.09-.71l0-.12a1.06,1.06,0,0,0-.9-.75,3.29,3.29,0,0,0-.9,0,7.15,7.15,0,0,0-1.47.33L59,33.4a.23.23,0,0,0-.13.14c0,.1-.07.19-.1.29-.21.7-.41,1.39-.65,2.08a38.32,38.32,0,0,1-1.76,4.37,18.1,18.1,0,0,1-1.21,2.06,7,7,0,0,1-1,1.22,3,3,0,0,1-.67.52,1.44,1.44,0,0,1-.81.19,1.23,1.23,0,0,1-.3-.05.92.92,0,0,1-.65-.84,1.33,1.33,0,0,1,.25-1c.12-.16.23-.32.36-.47.36-.41.71-.81,1.08-1.21A11.72,11.72,0,0,0,55.36,38a26.38,26.38,0,0,0,1.22-2.9c.11-.3.21-.61.31-.92A.8.8,0,0,0,56.92,34Z"/><path class="cls-11" d="M158.91,29.66a3,3,0,0,0-.52.11c-.77.2-1.51.46-2.26.74-1.2.45-2.39.93-3.56,1.47l-.64.32-.29.15a1.43,1.43,0,0,1-1.12.1,2.47,2.47,0,0,1-.57-.25,3.41,3.41,0,0,1-1.08-1,1.82,1.82,0,0,1-.24-.48.85.85,0,0,1,0-.36.38.38,0,0,1,.38-.34,2,2,0,0,1,.46.05l.14,0a2,2,0,0,0,.68,0,7.46,7.46,0,0,0,1.63-.29l3.22-.9c1.7-.47,3.4-.95,5.11-1.37.86-.21,1.72-.42,2.59-.58.37-.07.75-.13,1.12-.18a3.76,3.76,0,0,1,1.66.13,2.4,2.4,0,0,1,.54.24,1.48,1.48,0,0,1,.4.36,1.1,1.1,0,0,1-.21,1.54,1.35,1.35,0,0,1-1,.28l-1.46-.22a3.46,3.46,0,0,0-1.07,0,5.9,5.9,0,0,0-3.67,2.1,8.07,8.07,0,0,0-1.41,2.39,11.14,11.14,0,0,0-.6,2.21,15,15,0,0,0-.2,2.49,10.67,10.67,0,0,0,.14,1.87,4.71,4.71,0,0,0,.35,1.21,2.66,2.66,0,0,0,.3.49,1.84,1.84,0,0,0,1.14.68,5,5,0,0,0,1.33.06l.82-.06.77-.05h.63a1.76,1.76,0,0,1,.58.13,1.11,1.11,0,0,1,.43,1.72,1.63,1.63,0,0,1-.33.3,2.53,2.53,0,0,1-.63.3,5.15,5.15,0,0,1-1,.22,7.81,7.81,0,0,1-1.24.06,6.78,6.78,0,0,1-2.05-.36,4.27,4.27,0,0,1-1.87-1.26,4.57,4.57,0,0,1-.87-1.6,6.45,6.45,0,0,1-.27-1.34,13,13,0,0,1,0-1.67,16.2,16.2,0,0,1,.76-4.57,11.89,11.89,0,0,1,1.36-2.87,9.59,9.59,0,0,1,1.54-1.81Z"/><path class="cls-11" d="M91.21,30.33a.63.63,0,0,0,.42-.28l.16-.23a.56.56,0,0,1,.51-.24,2.54,2.54,0,0,1,1.07.28,1.11,1.11,0,0,1,.24.17.72.72,0,0,1,.24.66,1.37,1.37,0,0,1-.27.66,2.47,2.47,0,0,1-.56.54,5.17,5.17,0,0,1-.73.44l-.48.24-.17.09a.28.28,0,0,0-.17.26c0,.1,0,.2,0,.29,0,.55,0,1.09,0,1.64s0,1.27,0,1.9,0,1.14-.06,1.71A8.52,8.52,0,0,1,90,42.76a8.63,8.63,0,0,1-2.87,2.75c-.18.1-.37.19-.56.28a.62.62,0,0,1-.31,0,.29.29,0,0,1-.23-.46l.2-.26c.32-.39.65-.77,1-1.17a9.75,9.75,0,0,0,1.73-3.22,10.73,10.73,0,0,0,.37-1.79,19.37,19.37,0,0,0,.14-2.33q0-1.18,0-2.35c0-.23,0-.46,0-.7a1.05,1.05,0,0,0,0-.14c0-.15,0-.16-.18-.15l-.49,0c-.46,0-.91.09-1.37.09A5.05,5.05,0,0,1,85.48,33a3.44,3.44,0,0,1-1.06-.65,1.87,1.87,0,0,1-.36-.45.84.84,0,0,1-.11-.33.46.46,0,0,1,0-.14.29.29,0,0,1,.3-.26,1.06,1.06,0,0,1,.22,0l.29.07a4.53,4.53,0,0,0,1.07.16,11,11,0,0,0,1.62-.06,6.81,6.81,0,0,0,1.1-.18,3.73,3.73,0,0,0,.37-.14.37.37,0,0,0,.25-.36c0-.16,0-.33,0-.49A12.9,12.9,0,0,0,89,28.69c0-.32-.1-.64-.18-1a1.18,1.18,0,0,0-.28-.56,2,2,0,0,1-.17-.22.36.36,0,0,1,.07-.49.7.7,0,0,1,.26-.14,1.65,1.65,0,0,1,.81-.05,4,4,0,0,1,1.3.47,2,2,0,0,1,.46.34,1,1,0,0,1,.19.25.53.53,0,0,1,0,.41c0,.09-.06.19-.1.28a2.8,2.8,0,0,0-.26,1.25c0,.29,0,.57,0,.85A.39.39,0,0,0,91.21,30.33Z"/><path class="cls-11" d="M79.67,39.56a.56.56,0,0,0,.14-.2c.13-.27.27-.54.38-.82.25-.61.49-1.23.74-1.85.11-.27.22-.53.35-.8a3.08,3.08,0,0,1,.19-.35.83.83,0,0,1,.15-.19.31.31,0,0,1,.53.16.74.74,0,0,1,0,.31c0,.14-.05.27-.08.41-.16.74-.33,1.48-.49,2.21s-.25,1.22-.33,1.84c0,.34-.08.68-.12,1a2.1,2.1,0,0,0,.22,1.23,3.63,3.63,0,0,1,.27.66,3.21,3.21,0,0,1,.08.32,1,1,0,0,1-.7,1.12,1.18,1.18,0,0,1-1-.15,2,2,0,0,1-.46-.42,4.3,4.3,0,0,1-.47-.73,9.17,9.17,0,0,1-.51-1.24A15.83,15.83,0,0,1,78,40a12.52,12.52,0,0,1-.21-1.94c0-.47,0-.93,0-1.4s.07-.88.12-1.32.1-.8.15-1.19.13-.87.19-1.31c.11-.71.22-1.42.32-2.14a9,9,0,0,0,.09-1.2A5.45,5.45,0,0,0,78.48,28c0-.09-.06-.19-.09-.28l-.1-.3a.64.64,0,0,1,0-.14.4.4,0,0,1,.48-.42,1,1,0,0,1,.36.11,2.17,2.17,0,0,1,.44.31,4.5,4.5,0,0,1,1.34,2.16,2.87,2.87,0,0,1,.08.43,1.76,1.76,0,0,1-.06.74c-.12.38-.26.76-.4,1.13-.06.16-.12.32-.19.47A11.13,11.13,0,0,0,79.77,34a17.38,17.38,0,0,0-.34,1.78,11,11,0,0,0-.12,1.74,7.17,7.17,0,0,0,.24,1.76A1,1,0,0,0,79.67,39.56Z"/><path class="cls-11" d="M66.31,31.08a4.27,4.27,0,0,1,3.35,1.77,5.5,5.5,0,0,1,1,2.31,3.49,3.49,0,0,1,.06.55,1.82,1.82,0,0,1,0,.41,3.68,3.68,0,0,1-.36,1,2.13,2.13,0,0,1-.43.58,1.27,1.27,0,0,1-.59.32.81.81,0,0,1-.5,0l-.49-.22-.69-.34a2,2,0,0,0-.72-.21,2.88,2.88,0,0,1-.37-.07.4.4,0,0,1-.14-.07.22.22,0,0,1-.08-.26.53.53,0,0,1,.1-.17,1,1,0,0,1,.18-.15l.43-.27a7.46,7.46,0,0,0,.93-.67l.18-.17a.63.63,0,0,0,.18-.42,2.75,2.75,0,0,0-.28-1.43,3,3,0,0,0-1.39-1.41l-.5-.24a3.14,3.14,0,0,1-.34-.21.32.32,0,0,1-.13-.3.34.34,0,0,1,.31-.32Z"/><path class="cls-11" d="M41.89,31a4.69,4.69,0,0,1,1.64.3,3,3,0,0,1,.89.53,2.15,2.15,0,0,1,.7,1.11A1.86,1.86,0,0,1,45,34.17a1.26,1.26,0,0,1-.28.39.87.87,0,0,1-.69.25l-.63,0a.62.62,0,0,0-.21,0l-.53.13-.18,0a.33.33,0,0,1-.34-.37.75.75,0,0,1,0-.16c0-.08.06-.16.09-.24a.8.8,0,0,0-.24-.87A1.44,1.44,0,0,0,41.6,33a2.7,2.7,0,0,0-.85-.22h-.48a1.27,1.27,0,0,0-.44.1l-.35.14a1.17,1.17,0,0,1-.26.07.32.32,0,0,1-.36-.44,1.16,1.16,0,0,1,.15-.27,3.65,3.65,0,0,1,1.07-1A3.36,3.36,0,0,1,41.45,31Z"/><path class="cls-11" d="M162.84,32.8l.29.05A4.86,4.86,0,0,1,165.25,34a3.58,3.58,0,0,1,.86,1.26,2.31,2.31,0,0,1,.16.64,1.32,1.32,0,0,1-.69,1.27.83.83,0,0,1-1.06-.2,1.83,1.83,0,0,1-.26-.39c-.13-.29-.27-.58-.39-.87a5.06,5.06,0,0,0-.73-1.28l-.48-.63c-.08-.1-.15-.21-.21-.31a1,1,0,0,1-.1-.19.33.33,0,0,1,.22-.46A1.87,1.87,0,0,1,162.84,32.8Z"/><path class="cls-11" d="M169.33,34.81a1.64,1.64,0,0,1-.1.55,1,1,0,0,1-.64.59.89.89,0,0,1-.78-.15,1.22,1.22,0,0,1-.33-.35c-.1-.15-.18-.31-.26-.47s-.11-.24-.16-.37a3.06,3.06,0,0,0-.35-.63,7.35,7.35,0,0,0-1.26-1.38l-.18-.15a.64.64,0,0,1-.16-.26.35.35,0,0,1,.22-.46.9.9,0,0,1,.43-.05,2.59,2.59,0,0,1,.58.12,5.56,5.56,0,0,1,1.82,1,3.62,3.62,0,0,1,.77.83,2.27,2.27,0,0,1,.39,1.14A.57.57,0,0,0,169.33,34.81Z"/><path class="cls-11" d="M92.14,26.16a3.63,3.63,0,0,1,1.09.2,4.55,4.55,0,0,1,1.4.77,3,3,0,0,1,.58.62,1.82,1.82,0,0,1,.31.7,1.22,1.22,0,0,1-.43,1.2.78.78,0,0,1-1,0,1.55,1.55,0,0,1-.32-.32c-.16-.22-.33-.44-.48-.66a5.18,5.18,0,0,0-.94-1.09l-.55-.49-.25-.25a.81.81,0,0,1-.12-.17.31.31,0,0,1,.11-.41.8.8,0,0,1,.37-.13Z"/><path class="cls-11" d="M94.47,24.71a4.57,4.57,0,0,1,2.34.68,2.78,2.78,0,0,1,.55.45,1.83,1.83,0,0,1,.5,1,1.1,1.1,0,0,1-.16.75.77.77,0,0,1-.84.35,1.13,1.13,0,0,1-.55-.28,3.92,3.92,0,0,1-.31-.32,3.73,3.73,0,0,1-.25-.31,2.57,2.57,0,0,0-.46-.47,6.17,6.17,0,0,0-1.48-.91l-.23-.12a.45.45,0,0,1-.17-.22.34.34,0,0,1,.09-.38.5.5,0,0,1,.23-.12l.39-.08Z"/><path d="M315.76,55.69H.83a.83.83,0,0,0,0,1.67H315.76a.83.83,0,0,0,0-1.67Z"/></g></g></g></svg>